<?xml version="1.0" standalone="no"?>
<!DOCTYPE svg PUBLIC "-//W3C//DTD SVG 20010904//EN"
 "http://www.w3.org/TR/2001/REC-SVG-20010904/DTD/svg10.dtd">
<svg version="1.0" xmlns="http://www.w3.org/2000/svg"
 width="290.000000pt" height="290.000000pt" viewBox="0 0 290.000000 290.000000"
 preserveAspectRatio="xMidYMid meet">
<metadata>
Created by potrace 1.11, written by Peter Selinger 2001-2013
</metadata>
<g transform="translate(0.000000,290.000000) scale(0.100000,-0.100000)"
fill="#000000" stroke="none">
<path d="M1420 2341 c-13 -11 -28 -17 -32 -15 -4 3 -8 1 -8 -4 0 -14 -71 -43
-115 -48 -40 -4 -81 -10 -145 -20 -19 -3 -46 -7 -60 -9 -14 -2 -25 -4 -25 -5
0 -1 -13 -3 -29 -5 -15 -2 -58 -11 -95 -21 -36 -9 -73 -18 -81 -19 -8 -2 -17
-4 -20 -6 -3 -1 -9 -3 -15 -4 -5 -2 -13 -4 -17 -5 -5 -1 -12 -4 -18 -5 -5 -1
-12 -4 -15 -5 -3 -1 -8 -3 -12 -5 -5 -1 -21 -7 -36 -13 -16 -7 -32 -12 -38
-12 -5 0 -8 -36 -8 -80 0 -44 5 -80 9 -80 9 0 0 -37 -15 -61 -5 -9 -29 -29
-52 -46 l-42 -30 35 -36 c20 -20 33 -41 29 -47 -3 -5 -2 -10 3 -10 9 0 25 -41
18 -47 -1 -2 -21 14 -42 34 -22 21 -59 54 -83 73 -23 19 -57 49 -75 65 -18 17
-46 41 -62 55 -16 14 -85 75 -154 135 -69 60 -132 117 -140 125 -19 20 -80 63
-80 56 0 -2 6 -11 13 -18 7 -7 59 -69 116 -138 57 -69 111 -132 120 -141 9 -9
27 -31 41 -49 14 -17 36 -45 50 -60 14 -16 39 -44 55 -64 17 -20 40 -48 52
-62 13 -13 48 -56 79 -94 31 -39 60 -70 65 -70 5 0 9 -6 9 -13 0 -7 8 -20 18
-28 21 -19 69 -75 102 -119 14 -18 32 -40 41 -49 9 -9 63 -72 119 -141 57 -69
112 -132 122 -141 10 -9 18 -21 18 -26 0 -5 12 -21 28 -35 15 -14 41 -42 57
-63 17 -20 39 -47 50 -59 11 -13 36 -43 56 -67 33 -39 130 -156 169 -202 39
-47 73 -75 84 -71 7 3 19 14 27 26 7 11 25 33 39 48 14 15 36 42 50 60 14 18
32 40 41 49 9 9 51 59 94 111 43 52 87 105 99 117 12 12 35 38 51 59 17 20 38
44 48 53 9 8 17 21 17 28 0 7 4 13 8 13 5 0 64 68 132 150 68 83 128 150 132
150 4 0 8 5 8 11 0 6 6 16 13 23 22 23 103 118 197 231 130 156 172 205 198
231 12 13 22 26 22 29 0 3 11 18 25 33 42 45 50 54 136 157 45 55 86 102 91
103 4 2 8 8 8 14 0 12 -38 -11 -72 -44 -34 -33 -79 -73 -295 -260 -106 -92
-205 -178 -220 -192 -15 -14 -31 -26 -35 -26 -13 0 23 75 50 103 l26 28 -27
25 c-15 13 -27 22 -27 19 0 -3 -11 6 -24 20 -24 25 -25 32 -21 129 l3 103 -51
18 c-29 11 -56 20 -62 22 -16 3 -47 11 -109 28 -63 17 -107 26 -143 29 -13 0
-23 3 -23 6 0 3 -15 7 -33 8 -18 1 -44 5 -57 7 -14 3 -45 8 -70 10 -90 10
-114 17 -186 56 -41 21 -75 39 -77 39 -1 0 -13 -9 -27 -19z"/>
</g>
</svg>
